<?xml version="1.0" encoding="UTF-8"?>
<svg width="1200pt" height="1200pt" version="1.1" viewBox="0 0 1200 1200" xmlns="http://www.w3.org/2000/svg">
 <g>
  <path d="m837.37 1080h-474.74c-61.078 0-110.77-49.688-110.77-110.77v-669.32c0-20.391 16.547-36.938 36.938-36.938h622.4c20.391 0 36.938 16.547 36.938 36.938v669.28c0 61.125-49.688 110.81-110.77 110.81zm-511.64-743.16v632.39c0 20.344 16.547 36.938 36.938 36.938h474.74c20.344 0 36.938-16.547 36.938-36.938l-0.046875-632.39z"/>
  <path d="m1012.7 336.84h-825.37c-20.391 0-36.938-16.547-36.938-36.938s16.547-36.938 36.938-36.938l825.37 0.046875c20.391 0 36.938 16.547 36.938 36.938s-16.547 36.891-36.938 36.891z"/>
  <path d="m747.74 336.84h-295.5c-20.391 0-36.938-16.547-36.938-36.938l0.046874-142.97c0-20.391 16.547-36.938 36.938-36.938h295.45c20.391 0 36.938 16.547 36.938 36.938v143.02c-0.046876 20.391-16.547 36.891-36.938 36.891zm-258.56-73.828h221.63v-69.141l-221.63-0.046875z"/>
  <path d="m491.95 872.76c-20.391 0-36.938-16.547-36.938-36.938v-328.64c0-20.391 16.547-36.938 36.938-36.938s36.938 16.547 36.938 36.938v328.64c0 20.391-16.547 36.938-36.938 36.938z"/>
  <path d="m708.05 872.76c-20.391 0-36.938-16.547-36.938-36.938l0.046875-328.64c0-20.391 16.547-36.938 36.938-36.938s36.938 16.547 36.938 36.938v328.64c-0.046875 20.391-16.594 36.938-36.984 36.938z"/>
 </g>
</svg>
