<?xml version="1.0" encoding="UTF-8"?>
<svg width="1200pt" height="1200pt" version="1.1" viewBox="0 0 1200 1200" xmlns="http://www.w3.org/2000/svg">
<path d="m798.24 189.66c58.547-58.594 153.56-58.594 212.11 0 58.594 58.547 58.594 153.56 0 212.11l-356.11 356.11c-20.906 20.953-47.578 35.203-76.641 41.016l-147.1 29.438c-16.359 3.2812-33.328-1.875-45.141-13.688s-16.969-28.781-13.688-45.141l29.438-147.1c5.8125-29.062 20.062-55.734 41.016-76.641zm141.42 70.688c-19.547-19.5-51.188-19.5-70.734 0l-18.938 18.938 70.734 70.734 18.938-18.938c19.5-19.547 19.5-51.188 0-70.734zm-89.672 160.36-70.688-70.688-266.48 266.44c-6.9844 6.9844-11.719 15.891-13.641 25.547l-14.719 73.547 73.547-14.719c9.6562-1.9219 18.562-6.6562 25.547-13.641zm-549.98-170.72c-27.609 0-50.016 22.406-50.016 50.016v600c0 27.609 22.406 50.016 50.016 50.016h600c27.609 0 50.016-22.406 50.016-50.016v-300c0-27.609 22.359-50.016 49.969-50.016s50.016 22.406 50.016 50.016v300c0 82.828-67.172 150-150 150h-600c-82.828 0-150-67.172-150-150v-600c0-82.828 67.172-150 150-150h300c27.609 0 50.016 22.406 50.016 50.016s-22.406 49.969-50.016 49.969z" fill-rule="evenodd"/>
</svg>